# xmcd
#
# Track frame offsets:
#	150
#	17917
#	27081
#	45818
#	61287
#	77016
#	86166
#	96511
#	108222
#	120614
#	128888
#	142058
#	151848
#	163512
#	173516
#	185846
#	199168
#	210436
#	224670
#	237993
#	248532
#	259877
#	269490
#	281093
#	291966
#	301745
#	315414
#
# Disc length: 4373 seconds
#
# Revision: 0
# Processed by: cddbd v1.5.2PL0 Copyright (c) Steve Scherf et al.
# Submitted via: EZCDAudioConverter 7.1.2.1
#
DISCID=8111131b
DTITLE=Wink Martindale - Deck Of Cards and Big Bad John 
DYEAR=1959
DGENRE=Easy Listening
TTITLE0=Deck of Cards 
TTITLE1=Melody Of Love
TTITLE2=Steal Away
TTITLE3=Just A Closer Walk With Thee
TTITLE4=The Shifting Whispering Sands
TTITLE5=Peace In The Valley
TTITLE6=Trees
TTITLE7=Beyond The Sunset
TTITLE8=Little Boy Blue
TTITLE9=Moon River
TTITLE10=Big Bad John
TTITLE11=Black Land Farmer
TTITLE12=I'm Movin' On
TTITLE13=The Thing
TTITLE14=On The Banks Of The Old Pontchartrain
TTITLE15=Mommy, Please Stay Home With Me
TTITLE16=Now You Know How It Feels
TTITLE17=Life Gits Tee-jus Don't It?
TTITLE18=I Never See Maggie Alone
TTITLE19=Blue Bobby Sox
TTITLE20=Make Him Happy
TTITLE21=Man Needs A Woman
TTITLE22=Three Steps To The Phone
TTITLE23=Sweet Little Loveable You
TTITLE24=The World's Greatest Man
TTITLE25=I Saw Me
TTITLE26=Vision At The Peace Table
EXTD=
EXTT0=
EXTT1=
EXTT2=
EXTT3=
EXTT4=
EXTT5=
EXTT6=
EXTT7=
EXTT8=
EXTT9=
EXTT10=
EXTT11=
EXTT12=
EXTT13=
EXTT14=
EXTT15=
EXTT16=
EXTT17=
EXTT18=
EXTT19=
EXTT20=
EXTT21=
EXTT22=
EXTT23=
EXTT24=
EXTT25=
EXTT26=
PLAYORDER=
